<svg xml:space="preserve" viewBox="2238.5 1762.5 4500 3500" height="3500px" width="4500px" y="0px" x="0px" xmlns:xlink="http://www.w3.org/1999/xlink" xmlns="http://www.w3.org/2000/svg" id="svg8" version="1.1">
<defs>
	
	
		
		
</defs>

	
	
	
		
	

<g id="layer2">
	<path d="M4361.468,2171.437c-284.527-0.83-635.256,80.284-864.578,353.53c-107.608,128.22-161.5,248.686-184.192,360.029
		c-131.116,110.692-206.931,273.962-207.159,446.12c0.202,106.468,29.362,210.852,84.328,301.846
		c-224.43,86.441-372.641,303.07-372.701,544.752c0.272,162.646,68.041,317.797,186.959,428.037
		c3.736,6.117,6.013,9.479,6.013,9.479l-283.669,248.884h3500c0,0-141.186-38.488-264.459-104.239
		c76.107-67.664,119.762-164.859,119.932-267.018c-0.164-147.277-90.197-279.355-226.738-332.619
		c115.218-112.984,180.203-267.954,180.227-429.787c-0.56-212.835-113.121-409.466-295.861-516.834
		c35.535-73.843,54.107-154.774,54.342-236.809c0-302.237-243.641-547.249-544.186-547.248c-67.518,0-134.445,12.641-197.365,37.269
		c-75.76-93.161-167.044-155.266-253.076-209.759C4730.539,2213.528,4562.534,2172.022,4361.468,2171.437z" fill="#F2F4FF" id="path13786-3-8"></path>
	<path d="M5879.751,3735.076
		c-153.549,0.375-288.004,32.477-364.909,121.07c-273.445,315.002-223.256,467.733-558.141,491.121
		c-334.883,23.387-557.836-57.277-681.244,229.784c-102.894,239.342-443.323,137.697-615.668,287.061h2566.68
		c0,0-141.186-38.488-264.459-104.239c76.107-67.664,119.762-164.859,119.932-267.018
		c-0.164-147.277-90.197-279.355-226.738-332.619c111.691-109.792,176.154-259.225,179.564-416.252
		C5981.954,3738.216,5929.836,3734.953,5879.751,3735.076L5879.751,3735.076z" fill="#E7EAFF" id="path13788-42-1"></path>
	<path d="M3304.351,3933.322
		l23.274-88.481h37.282l-35.81,326.308L3304.351,3933.322z" fill="#3362C4" id="path48788-2-3"></path>
	<path d="M3400.151,4572.51h24.414
		c24.503,0,44.228,19.725,44.228,44.227v203.148c0,24.502-19.726,44.228-44.228,44.228h-24.414
		c-24.501,0-44.227-19.725-44.227-44.228v-203.148C3355.924,4592.235,3375.649,4572.51,3400.151,4572.51L3400.151,4572.51z" fill="#A5A3FF" id="rect9008"></path>
	<path d="M3646.137,4572.51h24.415
		c24.501,0,44.227,19.725,44.227,44.227v203.148c0,24.502-19.726,44.228-44.227,44.228h-24.415
		c-24.502,0-44.227-19.725-44.227-44.228v-203.148C3601.91,4592.235,3621.636,4572.51,3646.137,4572.51L3646.137,4572.51z" fill="#A5A3FF" id="rect9014"></path>
	<path d="M4336.349,4572.51h24.414
		c24.502,0,44.228,19.725,44.228,44.227v203.148c0,24.502-19.725,44.228-44.228,44.228h-24.414
		c-24.501,0-44.227-19.725-44.227-44.228v-203.148C4292.122,4592.235,4311.848,4572.51,4336.349,4572.51L4336.349,4572.51z" fill="#A5A3FF" id="path19236"></path>
	<path d="M4582.336,4572.51h24.414
		c24.502,0,44.227,19.725,44.227,44.227v203.148c0,24.502-19.725,44.228-44.227,44.228h-24.414
		c-24.502,0-44.228-19.725-44.228-44.228v-203.148C4538.108,4592.235,4557.833,4572.51,4582.336,4572.51L4582.336,4572.51z" fill="#A5A3FF" id="path19238"></path>
	<path d="M3350.124,3838.898
		h1300.139c52.589,0,94.925,42.336,94.925,94.925v771.417c0,52.588-42.336,94.924-94.925,94.924H3350.124
		c-52.587,0-94.924-42.336-94.924-94.924v-771.417C3255.199,3881.235,3297.536,3838.898,3350.124,3838.898L3350.124,3838.898z" fill="#CECFFF" id="rect9003"></path>
	<path d="M3350.124,3838.898
		h348.593c52.588,0,94.924,42.336,94.924,94.925v771.417c0,52.588-42.336,94.924-94.924,94.924h-348.593
		c-52.587,0-94.924-42.336-94.924-94.924v-771.417C3255.199,3881.235,3297.536,3838.898,3350.124,3838.898L3350.124,3838.898z" fill="#B7BBFF" id="path9580"></path>
	<path d="M3112.37,3797.566h1777.868
		c24.501,0,44.227,19.725,44.227,44.227v98.355c0,24.502-19.726,44.227-44.227,44.227H3112.37
		c-24.502,0-44.228-19.725-44.228-44.227v-98.355C3068.143,3817.291,3087.868,3797.566,3112.37,3797.566z" fill="#A5A3FF" id="rect9005"></path>
	<path d="M4257.244,3294.596h93.992c26.462,0,47.766,21.303,47.766,47.766v182.507
		c0,26.462-21.303,47.767-47.766,47.767h-93.992c-26.463,0-47.767-21.305-47.767-47.767v-182.507
		C4209.477,3315.899,4230.781,3294.596,4257.244,3294.596z" fill="#A5A3FF" id="rect19244"></path>
	<path d="M3962.543,3226.909h340.791c26.463,0,47.767,21.303,47.767,47.766V3749.8
		c0,26.462-21.304,47.767-47.767,47.767h-340.791c-26.462,0-47.766-21.305-47.766-47.767v-475.125
		C3914.777,3248.212,3936.081,3226.909,3962.543,3226.909z" fill="#CECFFF" id="rect19240"></path>
	<path d="M4293.69,3519.526h93.993c26.462,0,47.766,21.304,47.766,47.767V3749.8
		c0,26.462-21.303,47.767-47.766,47.767h-93.993c-26.462,0-47.765-21.305-47.765-47.767v-182.507
		C4245.925,3540.83,4267.229,3519.526,4293.69,3519.526z" fill="#CECFFF" id="rect19242"></path>
	<path d="M4032.444,3512.043h209.485
		v63.948h-209.485V3512.043z" fill="#E3E1FF" id="path19406"></path>
	<path d="M4029.73,3620.183h102.215
		v63.947H4029.73V3620.183z" fill="#E3E1FF" id="path19408"></path>
	<g transform="translate(-946.94498)" id="g18677">
		<path d="M4235.885,4618.756
			c-47.854,53.576-108.257,82.045-134.913,63.587c-26.656-18.46-9.47-76.856,38.385-130.434
			c47.855-53.577,108.258-82.046,134.914-63.587S4283.74,4565.178,4235.885,4618.756z" fill="#CECFFF" id="path18651"></path>
		<path d="M4221.415,4515.658
			c-47.854,53.578-108.258,82.047-134.914,63.587c-26.655-18.46-9.47-76.856,38.386-130.433
			c47.854-53.578,108.258-82.047,134.914-63.588S4269.271,4462.081,4221.415,4515.658z" fill="#CECFFF" id="path18653"></path>
		<path d="M3891.562,4618.756
			c47.855,53.576,108.258,82.045,134.914,63.587c26.656-18.46,9.471-76.856-38.385-130.434s-108.257-82.046-134.914-63.587
			C3826.521,4506.781,3843.706,4565.178,3891.562,4618.756z" fill="#B7BBFF" id="path18655"></path>
		<path d="M3906.032,4515.658
			c47.854,53.578,108.258,82.047,134.914,63.587c26.655-18.46,9.47-76.856-38.386-130.433
			c-47.855-53.578-108.258-82.047-134.914-63.588C3840.991,4403.684,3858.177,4462.081,3906.032,4515.658z" fill="#B7BBFF" id="path18657"></path>
		<path d="M4010.165,3991.41
			c-28.257-0.1-47.875,36.103-47.707,84.725c-27.358-15.492-52.828-20.599-67.39-11.231c-24.302,15.635-9.027,65.628,34.118,111.663
			c29.12,31.07,63.491,52.392,90.232,58.167c8.946,75.755,24.485,250.073,17.451,421.636c-0.787,12.972,9.227,24.061,22.211,24.594
			c12.984,0.531,23.874-9.701,24.15-22.692c7.391-180.282-9.383-360.07-18.118-432.548c22.334-12.9,46.815-36.631,66.811-66.832
			c36.004-54.377,43.825-109.085,17.469-122.191c-17.814-8.858-46.685,3.578-74.645,29.35c-12.104-42.168-37.138-73.328-63.065-74.6
			C4011.174,3991.426,4010.668,3991.411,4010.165,3991.41L4010.165,3991.41z" fill="#A5A3FF" id="path18659"></path>
		<path d="M3904.597,4348.183
			c58.448,41.767,123.627,56.282,145.582,32.423c21.953-23.86-7.631-77.061-66.079-118.826
			c-58.448-41.768-123.627-56.283-145.582-32.424C3816.564,4253.216,3846.148,4306.416,3904.597,4348.183z" fill="#A5A3FF" id="path18667"></path>
		<path d="M4177.352,4436.678
			c-36.263,62.012-89.808,101.909-119.599,89.111c-29.79-12.797-24.544-73.445,11.718-135.458
			c36.263-62.014,89.809-101.91,119.6-89.112C4218.86,4314.016,4213.614,4374.664,4177.352,4436.678z" fill="#A5A3FF" id="path18669"></path>
		<path d="M3841.625,4635.132
			l28.994,176.116c4.025,29.472,23.945,53.689,53.69,53.689h238.546c29.744,0,49.128-24.297,53.689-53.689l27.333-176.116H3841.625z" fill="#CECFFF" id="path18671"></path>
		<path d="M3841.625,4635.132
			l6.623,40.231h389.385l6.244-40.231H3841.625z" fill="#B7BBFF" id="path18673"></path>
		<path d="M3828.508,4533.631h429.88
			c29.743,0,53.688,23.945,53.688,53.689s-23.945,53.69-53.688,53.69h-429.88c-29.744,0-53.69-23.946-53.69-53.69
			S3798.763,4533.631,3828.508,4533.631z" fill="#CECFFF" id="path18675"></path>
	</g>
	<path d="M3652.048,2937.153l31.469,18.168c17.055,9.847,17.951,40.004,2.009,67.617l-209.75,363.297
		c-15.942,27.612-42.507,41.915-59.562,32.068l-31.469-18.168c-17.055-9.847-17.951-40.003-2.009-67.616l209.749-363.296
		C3608.429,2941.609,3634.993,2927.307,3652.048,2937.153z" fill="#A5A3FF" id="rect19798"></path>
	<circle r="297.998" cy="2980.573" cx="3647.959" fill="#CECFFF"></circle>
	<circle r="221.26" cy="2980.573" cx="3647.959" fill="#F2F4FF"></circle>
	<path d="M3432.558,3294.826l50.951,29.416c27.613,15.942,37.008,51.007,21.066,78.619
		l-209.75,363.297c-15.942,27.612-51.006,37.008-78.619,21.065l-50.95-29.416c-27.613-15.942-37.008-51.006-21.066-78.619
		l209.75-363.296C3369.881,3288.279,3404.945,3278.884,3432.558,3294.826z" fill="#B7BBFF" id="rect19796"></path>
	<path d="M3892.88,2977.647h43.484
		c20.548,0,37.09,16.542,37.09,37.09v749.47c0,20.548-16.542,37.09-37.09,37.09h-43.484c-20.548,0-37.09-16.542-37.09-37.09v-749.47
		C3855.79,2994.189,3872.332,2977.647,3892.88,2977.647z" fill="#B7BBFF" id="rect19511"></path>
	<path d="M3855.79,3084.871h59.846
		v40.538h-59.846V3084.871z" fill="#E3E1FF" id="path19514"></path>
	<path d="M3855.79,3222.249h29.151
		v40.537h-29.151V3222.249z" fill="#E3E1FF" id="path19518"></path>
	<path d="M3855.79,3290.938h57.288
		v40.536h-57.288V3290.938z" fill="#E3E1FF" id="path19520"></path>
	<path d="M3855.79,3359.627h29.151
		v40.538h-29.151V3359.627z" fill="#E3E1FF" id="path19522"></path>
	<path d="M3855.79,3428.316h29.151
		v40.538h-29.151V3428.316z" fill="#E3E1FF" id="path19524"></path>
	<path d="M3855.79,3497.006h59.846
		v40.536h-59.846V3497.006z" fill="#E3E1FF" id="path19526"></path>
	<path d="M3855.79,3565.694h29.151
		v40.537h-29.151V3565.694z" fill="#E3E1FF" id="path19528"></path>
	<path d="M3855.79,3634.384h29.151
		v40.536h-29.151V3634.384z" fill="#E3E1FF" id="path19530"></path>
	<path d="M3855.79,3703.072h57.288
		v40.537h-57.288V3703.072z" fill="#E3E1FF" id="path19532"></path>
	<path d="M3855.79,3153.561h29.151
		v40.537h-29.151V3153.561z" fill="#E3E1FF" id="path19516"></path>
	<path d="M3620.452,3273.532l15.062,1.348c8.303,0.744,14.39,8.026,13.646,16.33l-30.292,338.435
		c-0.743,8.304-8.026,14.39-16.329,13.646l-15.062-1.349c-8.303-0.743-14.39-8.025-13.646-16.329l30.292-338.435
		C3604.865,3278.875,3612.148,3272.789,3620.452,3273.532z" fill="#A5A3FF" id="rect19802"></path>
	<path d="M3673.809,3344.977l15.062,1.348c8.303,0.744,14.39,8.026,13.647,16.33l-30.292,338.435
		c-0.743,8.304-8.027,14.39-16.331,13.646l-15.062-1.349c-8.304-0.743-14.39-8.025-13.646-16.329l30.292-338.435
		C3658.223,3350.319,3665.505,3344.233,3673.809,3344.977z" fill="#CECFFF" id="rect19804"></path>
	<path d="M3525.729,3326.191l15.117-0.405c8.334-0.224,15.223,6.305,15.446,14.639l9.102,339.665
		c0.223,8.334-6.307,15.224-14.641,15.446l-15.115,0.405c-8.334,0.223-15.223-6.306-15.446-14.641l-9.101-339.665
		C3510.866,3333.304,3517.396,3326.415,3525.729,3326.191z" fill="#B7BBFF" id="rect19806"></path>
	<path d="M3522.542,3507.699h155.297c22.365,0,40.371,18.005,40.371,40.37v208.654
		c0,22.365-18.005,40.371-40.371,40.371h-155.297c-22.365,0-40.371-18.006-40.371-40.371v-208.654
		C3482.171,3525.704,3500.177,3507.699,3522.542,3507.699z" fill="#CECFFF" id="rect19800"></path>
	<path d="M4164.541,3240.226
		l50.155-23.169c11.997-4.773,25.467-5.319,39.632,5.33l47.78,36.389c18.921,14.409,39.406,34.605,35.489,58.063l-23.868,142.939
		c-3.917,23.458-24.711,39.987-48.282,36.809l-137.567-18.55c-23.57-3.178-40.724-24.823-36.807-48.281l23.868-142.94
		C4118.858,3263.357,4142.951,3250.199,4164.541,3240.226L4164.541,3240.226z" fill="#F2F4FF" id="path19897"></path>
	<path d="M4274.815,3302.772
		c0,26.527-21.505,48.033-48.033,48.033c-26.528,0-48.034-21.505-48.034-48.033c0-26.528,21.506-48.034,48.034-48.034
		C4253.31,3254.739,4274.815,3276.245,4274.815,3302.772z" fill="#CECFFF" id="path19899"></path>
	<path d="M4130.996,3166.704
		c-44.545,0-42.362,61.739-34.817,61.874h95.83v62.686c-0.245,17.257,13.678,31.377,30.937,31.377
		c17.258,0,31.181-14.121,30.937-31.377v-93.623c0-17.084-13.852-30.935-30.937-30.937H4130.996z" fill="#B7BBFF" id="path19901"></path>
	<path d="M5017.506,4778.73
		l8.185-66.632h-79.835h-19.018l-1.653,93.888L5017.506,4778.73z" fill="#F6C6C0" id="path19304"></path>
	<path d="M5066.334,2969.033c0,0-77.775,253.221-166.402,303.865
		s-302.057-231.517-302.057-231.517L5066.334,2969.033z" fill="#6584F7" id="path20013"></path>
	<path d="M5518.514,2918.389
		c1.809,12.662,66.924,397.919,66.924,397.919l-100.254,2.822c0,0-64.92-238.334-53.488-283.174
		c11.432-44.84,97.671-122.993,97.671-122.993L5518.514,2918.389z" fill="#A5A3FF" id="path20034"></path>
	<path d="M5088.669,2602.732v0.001
		c52.423,0.031,97.998,2.734,135.029,2.133c95.259-1.548,126.159,5.573,208.001,82.006c15.423,18.361,33.969,39.056,53.796,60.897
		c-3.854,245.555,2.651,490.225,9.161,735.604h-372.311c-6.725-22.347-13.139-43.538-19.511-63.856l-53.61-144.229
		c-26.938-57.886-61.33-111.931-113.518-170.656c-96.34-130.804-131.424-170.364-34.769-401.094
		c84.355-54.867,177.155-100.772,177.155-100.772c3.555-0.031,7.08-0.034,10.575-0.034V2602.732z" fill="#6584F7" id="path19308"></path>
	<path d="M4815.153,2458.266
		l-8.82,65.234C4721.457,2534.951,4713.159,2338.049,4815.153,2458.266L4815.153,2458.266z" fill="#F69CB3" id="path19310"></path>
	<path d="M4746.25,2334.158
		c0,0-25.726,12.589-34.066,41.925c-8.34,29.336,60.641,100.361,60.641,100.361L4746.25,2334.158z" fill="#3D3D3D" id="path19312"></path>
	<path d="M4970.508,2260.839
		c0,0,37.65-11.638,59.727,33.564s2.707,146.624,2.707,146.624c23.303,63.173,14.423,120.473-57.277,74.156
		c-32.965-23.03-88.486-181.546-88.486-181.546s-98.887,41.556-149.447,19.762c-50.56-21.793-119.986-107.247-65.793-140.25
		c54.193-33.003,77.992,5.502,203.182-31.39C4940.499,2162.492,4981.295,2209.857,4970.508,2260.839L4970.508,2260.839z" fill="#3D3D3D" id="path19314"></path>
	<path d="M5019.278,2470.899
		l45.202,113.886l-73.579,157.02l-38.149-41.701l-15.283-85.891L5019.278,2470.899z" fill="#F6C6C0" id="path19316"></path>
	<path d="M5019.278,2470.9l-81.809,143.312l12.745,71.63
		c13.878-2.658,26.801-8.989,34.939-21.814c25.804-40.664,15.768-125.469,15.768-125.469L5019.278,2470.9z" fill="#F69CB3" id="path19318"></path>
	<path d="M5019.278,2470.899
		c80.446-29.386-3.892-207.503-38.181-53.625c-25.871-26.084-75.266-61.459-69.064-125.666
		c-56.605,35.259-103.836,63.4-174.303,61.791C4782.477,2647.52,4970.006,2786.731,5019.278,2470.899L5019.278,2470.899z" fill="#F6C6C0" id="path19320"></path>
	<path d="M5005.99,2432.877
		c-0.73-1.378-1.584-23.767,6.905-41.451c8.491-17.684,23.128-2.596,23.128-2.596s-11.834-0.584-15.537,11.241
		c-3.703,11.826,20.406,19.508,4.025,36.803C5008.133,2454.169,5005.99,2432.877,5005.99,2432.877L5005.99,2432.877z" fill="#F69CB3" id="path19322"></path>
	<path d="M4990.901,2741.804
		l73.579-157.02l-12.38-30.739c35.353,13.758,54.179,31.382,53.837,50.308l-32.973,165.338L4990.901,2741.804z" fill="#FFFFFF" id="path19324"></path>
	<path d="M4952.752,2700.103
		l-8.545-48.743c-29.592,15.266-56.943,42.242-42.529,69.546c4.451,8.028,45.747,102.583,45.747,102.583l43.477-81.685
		L4952.752,2700.103z" fill="#FFFFFF" id="path19326"></path>
	<path d="M5122.863,3510.873l-167.6,487.633c-25.643,69.566-35.145,127.96-34.657,200.502l1.878,279.225l4.354,233.866h98.853
		l24.554-233.866l58.436-341.305l174.648-292.232l47.293,270.736c7.03,40.999,14.145,65.332,25.398,98.813l89.951,267.605
		l72.24,230.248h90.668l-37.49-233.866l-55.856-341.293l-8.499-352.158l-5.973-247.42L5122.863,3510.873z" fill="#FF6853" id="path19328"></path>
	<path d="M5050.244,4478.232h-127.76l4.354,233.866h98.853
		L5050.244,4478.232z" fill="#E0523C" id="path19330"></path>
	<path d="M5571.389,4478.232
		l-125.418,3.617l72.24,230.249h90.668L5571.389,4478.232z" fill="#E0523C" id="path19332"></path>
	<path d="M5283.328,3844.695
		l-36.607-155.156h-37.281l8.978,263.146L5283.328,3844.695z" fill="#E0523C" id="path19334"></path>
	<path d="M5122.345,3483.376
		l0.031,27.462l378.685,26.523l-6.403-53.985H5122.345z" fill="#FFFFFF" id="path19336"></path>
	<path d="M4926.838,4741.658
		l95.672,1.111l-5.004,35.961c0,0-91.867-5.988-92.074-7.021C4925.225,4770.675,4926.838,4741.658,4926.838,4741.658
		L4926.838,4741.658z" fill="#FFFFFF" id="path19338"></path>
	<path d="M4766.574,4864.112h260.452
		l-9.521-85.381l-31.021-8.485c-21.117-20.388-59.772-25.388-86.152,4.657c0,0-48.283,34.741-71.836,35.329
		C4780.779,4810.232,4762.943,4819.365,4766.574,4864.112L4766.574,4864.112z" fill="#3D3D3D" id="path19340"></path>
	<path d="M5536.875,4784.609
		l-18.664-72.511h71.65h19.018l12.177,93.888L5536.875,4784.609z" fill="#F6C6C0" id="path19342"></path>
	<path d="M5612.995,4741.658
		l-86.343,2.92l10.223,40.031c0,0,83.728-11.867,83.934-12.902C5621.016,4770.675,5612.995,4741.658,5612.995,4741.658
		L5612.995,4741.658z" fill="#FFFFFF" id="path19344"></path>
	<path d="M5689.027,4864.112
		c27.898,0-105.087,0-153.793,0l1.641-79.503l22.881-14.363c21.118-20.388,53.239-28.588,70.952,1.442
		C5653.678,4831.173,5692.743,4806.508,5689.027,4864.112z" fill="#3D3D3D" id="path19346"></path>
	<path d="M5360.967,2911.26
		l128.203,124.62l-134.648,86.875L5360.967,2911.26z" fill="#3362C4" id="path19348"></path>
	<path d="M5375.229,3229.489h409.155c42.092,0,75.979,33.886,75.979,75.977v230.613
		c0,42.091-33.887,75.978-75.979,75.978h-409.155c-42.091,0-75.978-33.887-75.978-75.978v-230.613
		C5299.252,3263.375,5333.139,3229.489,5375.229,3229.489L5375.229,3229.489z" fill="#B7BBFF" id="rect20015"></path>
	<path d="M5492.736,3168.212h119.186c27.92,0,50.398,22.478,50.398,50.398v50.121
		c0,27.92-22.479,50.398-50.398,50.398h-119.186c-27.92,0-50.397-22.478-50.397-50.398v-50.121
		C5442.339,3190.69,5464.816,3168.212,5492.736,3168.212z" fill="#B7BBFF" id="rect20030"></path>
	<path d="M5375.23,3229.489c-42.092,0-75.979,33.887-75.979,75.978
		v48.052c83.74,53.819,194.093,83.828,308.793,83.973c89.902-0.089,177.734-18.542,252.318-53.008v-79.017
		c0-42.091-33.887-75.978-75.979-75.978H5375.23z" fill="#CECFFF" id="rect20021"></path>
	<path d="M5485.494,2747.771
		c0,0,71.842,77.347,123.217,131.828c53.703,56.95,97.15,134.848,98.201,216.554c1.078,83.951,3.322,329.667,3.322,329.667
		l-144.42-2.699l-24.479-333.259l-98.209-98.746l-20.262-139.1L5485.494,2747.771z" fill="#6584F7" id="path19354"></path>
	<path d="M5700.959,3592.138
		c0.738-18.63-17.152-114.511-17.152-114.511l-0.195-2.968l-91.893-4.64c-5.321,9.523-14.399,18.897-27.111,34.812
		c1.384,2.922-35.16,40.717-51.926,62.007c-5.094,25.779,42.829,45.354,42.829,45.354c-21.816,77.986,139.711,86.526,145.45-20.055
		H5700.959z" fill="#F6CDC1" id="path19356"></path>
	<path d="M5707.756,3475.879
		l-135.877-6.862l-6.065-45.896l144.421,2.699L5707.756,3475.879z" fill="#FFFFFF" id="path19358"></path>
	<path d="M5683.807,3477.627
		l-120.609,28.774l28.521-36.382l91.892,4.64L5683.807,3477.627z" fill="#F69CB3" id="path19360"></path>
	<g transform="translate(-239.1921,-12.66181)" id="g19950">
		<path d="M5994.849,4646.967
			l28.994,176.117c4.025,29.471,23.945,53.69,53.689,53.69h238.547c29.744,0,49.128-24.298,53.689-53.69l27.333-176.117H5994.849z" fill="#CECFFF" id="path36271-3-2-4"></path>
		<path d="M5994.849,4646.967l6.623,40.233h389.386
			l6.244-40.233H5994.849z" fill="#B7BBFF" id="path36273-9-53-7"></path>
		<path d="M6411.306,4272.663
			c-26.352,0.261-97.403,24.465-116.912,57.348c-19.105,32.203-13.086,64.008,4.845,86.815c-1.458,4.352-2.896,8.93-4.284,13.756
			c-12.652,43.953-22.163,108.609-10.705,191.997c1.225,9.475,9.897,16.163,19.373,14.938c9.475-1.225,16.162-9.898,14.939-19.374
			c-0.013-0.092-0.025-0.185-0.039-0.276c-1.721-12.523-2.932-24.56-3.714-36.114c13.136,6.62,29.419,6.808,44.623-4.607
			c19.429-14.587,28.536-65.703,23.385-72.566c-5.3-7.058-43.656-11.136-66.583-2.779c2.624-23.878,7.003-44.29,11.832-61.164
			c33.185,17.278,76.698,13.46,102.416-29.886c22.295-37.58,4.934-127.293-10.9-136.688
			C6417.923,4273.078,6415.069,4272.626,6411.306,4272.663z" fill="#CECFFF" id="path36277-4-1-4"></path>
		<path d="M5948.548,4321.367
			c-15.115,0.164-26.834,2.365-30.928,6.408c-10.981,10.846-8.299,104.189,22.407,135.278c26.638,26.971,59.408,28.935,86.199,16.88
			c5.151,6.02,10.512,12.797,15.812,20.352c-22.131,2.313-46.65,12.59-49.384,19.25c-3.259,7.939,18.431,55.115,40.907,64.338
			c17.501,7.182,33.14,2.978,44.177-6.633c1.796,7.262,3.247,14.785,4.267,22.569c1.023,9.498,9.553,16.369,19.051,15.346
			c9.499-1.022,16.369-9.553,15.346-19.052c-0.029-0.263-0.063-0.525-0.104-0.788c-7.803-59.583-36.588-105.62-61.797-135.646
			c25.98-27.672,34.025-71.445-1.891-107.811C6031.5,4330.485,5981.804,4321.004,5948.548,4321.367z" fill="#B7BBFF" id="path36281-2-345-6"></path>
		<path d="M6366.187,4057.885
			c-31.924-0.502-91.75,13.973-113.413,40.356c-31.793,38.72-20.879,80.662,6.316,106.02c-0.687,1.834-1.369,3.711-2.05,5.636
			c-22.146,62.693-41.174,175.11-33.715,380.879c0.223,9.552,8.145,17.114,17.695,16.893s17.113-8.144,16.891-17.694
			c-0.002-0.15-0.008-0.299-0.016-0.448c-2.786-76.874-1.755-140.204,1.674-192.307c19.344,10.55,45.83,8.454,59.715-16.269
			c11.897-21.184-0.379-71.631-7.861-75.834c-5.518-3.1-25.973,2.061-43.602,11.45c5.963-41.022,13.604-71.446,21.371-93.772
			c28.125,10.295,61.359,5.72,85.875-24.137c27.729-33.771,21.852-126.969,9.923-136.763
			C6381.878,4059.338,6375.127,4058.023,6366.187,4057.885L6366.187,4057.885z" fill="#A5A3FF" id="path36283-0-7-1"></path>
		<path d="M6116.224,3915.298
			c-0.666,0.03-1.283,0.099-1.844,0.231c-15.023,3.537-61.361,84.609-51.348,127.143c8.73,37.082,35.902,55.842,65.215,59.377
			c12.281,96.762,35.354,305.203,30.832,475.289c-0.365,9.547,7.078,17.581,16.625,17.945c9.546,0.365,17.58-7.078,17.945-16.625
			c0.005-0.133,0.01-0.268,0.011-0.4c3.032-114.027-5.954-243.471-16-346.566c17.019,3.883,35.962-1.479,46.977-21.092
			c11.897-21.183-0.379-71.631-7.862-75.834c-5.98-3.359-29.506,2.983-47.965,13.902c-2.153-18.589-4.175-34.995-5.998-49.333
			c36.452-10.185,65.928-43.31,54.247-92.925C6207.358,3965.207,6136.91,3914.586,6116.224,3915.298L6116.224,3915.298z" fill="#A5A3FF" id="path36285-3-2-3"></path>
		<path d="M5981.731,4539.59h429.881
			c29.744,0,53.689,23.945,53.689,53.689c0,29.743-23.945,53.688-53.689,53.688h-429.881c-29.744,0-53.689-23.945-53.689-53.688
			C5928.042,4563.535,5951.987,4539.59,5981.731,4539.59z" fill="#CECFFF" id="rect36299-9-195-4"></path>
		<path d="M5966.328,4105.408
			c-3.94-0.031-7.046,0.494-9.052,1.621c-13.458,7.558-35.538,98.291-14.141,136.39c23.129,41.183,65.697,47.441,99.497,33.067
			c34.473,63.434,85.419,187.114,73.245,348.613c-0.783,9.522,6.301,17.875,15.822,18.658c9.522,0.783,17.876-6.301,18.658-15.823
			c0.006-0.079,0.012-0.157,0.019-0.236c5.875-77.951-2.376-147.78-16.573-207.081c19.068,9.05,43.908,6.127,57.201-17.541
			c11.897-21.184-0.379-71.633-7.861-75.834c-8.636-4.85-53.867,10.513-67.574,30.699c-14.366-41.764-30.642-75.822-44.359-100.855
			c21.324-21.835,30.182-55.027,9.891-91.154C6062.378,4132.596,5993.905,4105.598,5966.328,4105.408L5966.328,4105.408z" fill="#CECFFF" id="path36279-3-31-7"></path>
	</g>
	<path d="M4485.524,2961.517
		c4.392-5.153,12.231-10.181,24.602-14.689c12.332-5.877,23.091-11.143,32.663-15.536l150.242,124.996
		c-14.807,24.6-31.451,50.759-38.649,56.726c-7.253,5.227-15.597,9.214-24.607,12.055c-24.822-32.313-94.964-121.707-94.964-121.707
		C4512.233,3008.54,4466.495,2983.852,4485.524,2961.517L4485.524,2961.517z" fill="#F6CDC1" id="path31021-1"></path>
	<path d="M4434.589,3500.448h197.288c17.684,0,31.92,14.235,31.92,31.919v232.792
		c0,17.684-14.236,31.92-31.92,31.92h-197.288c-17.683,0-31.919-14.236-31.919-31.92v-232.792
		C4402.67,3514.684,4416.906,3500.448,4434.589,3500.448L4434.589,3500.448z" fill="#B7BBFF" id="rect19493"></path>
	<path d="M4445.659,3534.423h178.305c7.813,0,14.103,6.29,14.103,14.103v34.152
		c0,7.813-6.289,14.103-14.103,14.103h-178.305c-7.813,0-14.102-6.29-14.102-14.103v-34.152
		C4431.557,3540.713,4437.846,3534.423,4445.659,3534.423z" fill="#F2F4FF" id="rect19495"></path>
	<path d="M4457.807,3619.456h45.49c10.729,0,19.366,8.638,19.366,19.366v23.625
		c0,10.729-8.637,19.366-19.366,19.366h-45.49c-10.729,0-19.366-8.637-19.366-19.366v-23.625
		C4438.44,3628.094,4447.078,3619.456,4457.807,3619.456z" fill="#CECFFF" id="rect19499"></path>
	<path d="M4457.807,3700.846h45.49c10.729,0,19.366,8.638,19.366,19.366v23.625
		c0,10.729-8.637,19.366-19.366,19.366h-45.49c-10.729,0-19.366-8.638-19.366-19.366v-23.625
		C4438.44,3709.482,4447.078,3700.846,4457.807,3700.846z" fill="#CECFFF" id="rect19501"></path>
	<path d="M4569.97,3619.456h45.491c10.729,0,19.366,8.638,19.366,19.366v23.625
		c0,10.729-8.638,19.366-19.366,19.366h-45.491c-10.729,0-19.366-8.637-19.366-19.366v-23.625
		C4550.604,3628.094,4559.24,3619.456,4569.97,3619.456z" fill="#CECFFF" id="rect19503"></path>
	<path d="M4569.97,3700.846h45.491c10.729,0,19.366,8.638,19.366,19.366v23.625
		c0,10.729-8.638,19.366-19.366,19.366h-45.491c-10.729,0-19.366-8.638-19.366-19.366v-23.625
		C4550.604,3709.482,4559.24,3700.846,4569.97,3700.846z" fill="#CECFFF" id="rect19505"></path>
	<path d="M4516.961,2801.246l193.25-111.529c26.314-15.186,59.725-6.228,74.91,20.086
		l181.143,313.876c15.186,26.313,6.227,59.724-20.086,74.909l-193.252,111.529c-26.313,15.186-59.723,6.227-74.909-20.086
		l-181.142-313.876C4481.688,2849.841,4490.646,2816.432,4516.961,2801.246z" fill="#B7BBFF" id="rect20002"></path>
	<path d="M4582.978,2834.201l109.921-63.464c16.494-9.521,37.438-3.91,46.961,12.583l23.176,40.143
		c9.522,16.493,3.91,37.437-12.583,46.959l-109.922,63.463c-16.493,9.523-37.438,3.911-46.959-12.583l-23.177-40.143
		C4560.872,2864.667,4566.483,2843.724,4582.978,2834.201L4582.978,2834.201z" fill="#A5A3FF" id="rect20011"></path>
	<path d="M4662.005,2717.538l236.038,408.831l37.664-21.734
		l-236.039-408.832L4662.005,2717.538z" fill="#F2F4FF" id="rect20006"></path>
	<path d="M4540.783,3001.674
		c-3.767,0.693-5.973,1.688-5.973,1.688l-23.622,19.096c-7.3,9.368-1.008,62.881,7.577,81.164
		c23.284,49.865,87.736,43.895,135.616,9.393c36.982-36.668,48.917-63.525,22.191-96.724
		C4650.106,2988.293,4576.645,2977.466,4540.783,3001.674z" fill="#F6CDC1" id="path31023-63"></path>
	<path d="M5414.721,3377.962h12.391c12.333,0,22.262,9.928,22.262,22.261v21.345
		c0,12.332-9.929,22.261-22.262,22.261h-12.391c-12.334,0-22.262-9.929-22.262-22.261v-21.345
		C5392.459,3387.89,5402.387,3377.962,5414.721,3377.962z" fill="#F2F4FF" id="rect20024"></path>
	<path d="M5783.061,3377.962h12.391c12.334,0,22.262,9.928,22.262,22.261v21.345
		c0,12.332-9.928,22.261-22.262,22.261h-12.391c-12.333,0-22.261-9.929-22.261-22.261v-21.345
		C5760.8,3387.89,5770.728,3377.962,5783.061,3377.962L5783.061,3377.962z" fill="#F2F4FF" id="rect20026"></path>
	<path d="M5368.889,3388.789
		c0,0-132.535-689.255-96.36-747.135c36.175-57.879,92.245-7.235,92.245-7.235s-2.713-49.739-72.35-55.166
		c-69.635-5.426-91.34,47.931-96.766,108.523c-5.428,60.592,99.072,634.994,103.594,665.743
		C5303.773,3384.267,5368.889,3388.789,5368.889,3388.789z" fill="#A5A3FF" id="path20032"></path>
	<path d="M3953.733,4118.479
		h625.205c41.507,0,74.922,33.415,74.922,74.922v231.286c0,41.506-33.415,74.922-74.922,74.922h-625.205
		c-41.507,0-74.922-33.416-74.922-74.922v-231.286C3878.811,4151.895,3912.227,4118.479,3953.733,4118.479z" fill="#F2F4FF" id="rect9577-8"></path>
	<path d="M3979.849,4189.461
		c0,15.893-12.884,28.777-28.776,28.777l0,0c-15.893,0-28.776-12.885-28.776-28.777l0,0c0-15.893,12.884-28.775,28.776-28.775
		S3979.849,4173.568,3979.849,4189.461z" fill="#B7BBFF" id="path9582-7"></path>
	<path d="M3979.849,4428.627
		c0,15.893-12.884,28.776-28.776,28.776l0,0c-15.893,0-28.776-12.884-28.776-28.776l0,0c0-15.893,12.884-28.777,28.776-28.777
		S3979.849,4412.734,3979.849,4428.627z" fill="#B7BBFF" id="circle9584-6"></path>
	<path d="M4611.654,4189.461
		c0,15.893-12.883,28.777-28.776,28.777l0,0c-15.893,0-28.776-12.883-28.776-28.777l0,0c0-15.893,12.884-28.775,28.776-28.775l0,0
		C4598.771,4160.686,4611.654,4173.568,4611.654,4189.461z" fill="#B7BBFF" id="circle9586-4"></path>
	<path d="M4611.654,4428.627
		c0,15.893-12.883,28.776-28.776,28.776l0,0c-15.893,0-28.776-12.883-28.776-28.776l0,0c0-15.893,12.884-28.777,28.776-28.777l0,0
		C4598.771,4399.85,4611.654,4412.734,4611.654,4428.627z" fill="#B7BBFF" id="circle9588-0"></path>
	<path d="M4330.438,4219.245
		c0,0-15.759,27.292-28.059,48.597c-12.301,21.307-12.152,45.355-12.152,45.355v123.898c51.152,0,88.83,0,137.463,0v-123.898
		c0,0,0.147-24.049-12.153-45.355c-12.301-21.305-28.058-48.597-28.058-48.597h-28.521H4330.438z" fill="#B7BBFF" id="path20734"></path>
	<path d="M4348.104,4186.587
		c-2.423,3.511-14.016,29.618-17.667,32.658h28.521h28.521c-3.651-3.04-15.32-29.097-17.668-32.658
		C4363.628,4179.203,4354.036,4178.547,4348.104,4186.587L4348.104,4186.587z" fill="#A5A3FF" id="path20736"></path>
	<path d="M4330.438,4219.245c0,0-15.759,27.292-28.059,48.597
		c-7.977,13.817-10.707,28.746-11.648,37.564c20.931,9.819,49.922,22.824,64.493,26.659c11.61,3.056,42.922-6.884,72.466-18.096
		v-0.772c0,0,0.147-24.049-12.153-45.355c-12.301-21.305-28.058-48.597-28.058-48.597h-28.521H4330.438z" fill="#CECFFF" id="path20748"></path>
	<path d="M4159.057,4219.245
		c0,0-15.758,27.292-28.059,48.597c-12.301,21.307-12.152,45.355-12.152,45.355v123.898c51.151,0,88.83,0,137.462,0v-123.898
		c0,0,0.147-24.049-12.153-45.355c-12.301-21.305-28.058-48.597-28.058-48.597h-28.521H4159.057z" fill="#B7BBFF" id="path20751"></path>
	<path d="M4176.724,4186.587
		c-2.423,3.511-14.016,29.618-17.667,32.658h28.521h28.521c-3.651-3.04-15.32-29.097-17.668-32.658
		C4192.248,4179.203,4182.655,4178.547,4176.724,4186.587z" fill="#A5A3FF" id="path20753"></path>
	<path d="M4159.057,4219.245c0,0-15.758,27.292-28.059,48.597
		c-7.977,13.817-10.707,28.746-11.648,37.564c20.931,9.819,49.923,22.824,64.493,26.659c11.611,3.056,42.923-6.884,72.466-18.096
		v-0.772c0,0,0.147-24.049-12.153-45.355c-12.301-21.305-28.058-48.597-28.058-48.597h-28.521H4159.057z" fill="#CECFFF" id="path20755"></path>
</g>
</svg>
