<?xml version="1.0" standalone="no"?><!DOCTYPE svg PUBLIC "-//W3C//DTD SVG 1.1//EN" "http://www.w3.org/Graphics/SVG/1.1/DTD/svg11.dtd"><svg class="icon" width="48px" height="48.00px" viewBox="0 0 1024 1024" version="1.1" xmlns="http://www.w3.org/2000/svg"><path d="M984.615385 512c0 261.001846-211.613538 472.615385-472.615385 472.615385S39.384615 773.001846 39.384615 512 250.998154 39.384615 512 39.384615s472.615385 211.613538 472.615385 472.615385z" fill="#5577EC" /><path d="M385.063385 390.537846l44.386461-29.538461 81.604923 97.910153a27.569231 27.569231 0 0 0 40.644923 1.851077l58.761846-58.761846 104.211693 104.211693a19.692308 19.692308 0 0 0 27.884307-27.844924l-112.600615-112.56123a27.569231 27.569231 0 0 0-38.990769 0l-57.934769 57.934769-80.147693-96.137846a27.569231 27.569231 0 0 0-36.470154-5.277539l-53.16923 35.446154a19.692308 19.692308 0 0 0 21.819077 32.768zM295.384615 354.461538a19.692308 19.692308 0 0 0-39.384615 0v252.061539c0 45.686154 37.021538 82.707692 82.707692 82.707692H748.307692a19.692308 19.692308 0 0 0 0-39.384615H338.707692a43.323077 43.323077 0 0 1-43.323077-43.323077V354.461538z" fill="#FFFFFF" /></svg>