<?xml version="1.0" standalone="no"?><!DOCTYPE svg PUBLIC "-//W3C//DTD SVG 1.1//EN" "http://www.w3.org/Graphics/SVG/1.1/DTD/svg11.dtd"><svg class="icon" width="48px" height="48.00px" viewBox="0 0 1024 1024" version="1.1" xmlns="http://www.w3.org/2000/svg"><path d="M867.4 533c-1.4-1.3-2.9-2.5-4.2-3.8-19.1-19.6-31-46.4-31-76 0-25.4 9.1-48.5 23.7-67.1 0.4-0.5 0.7-0.9 1.1-1.3 30.4-37.2 48.7-84.7 48.7-136.5 0-111.7-84.9-203.5-193.6-214.6-61.9-8.6-125-13.4-189.2-13.4-64.1 0-127.1 4.8-188.8 13.4-12.9 1.8-25.7 3.8-38.4 5.9C197 62.3 119.7 140.1 97.8 239c-1.1 5.4-1.9 10.9-2.9 16.3C79 338.4 70.4 424.1 70.4 511.8c0 87.8 8.6 173.5 24.5 256.6 1 5.4 1.8 10.9 2.9 16.2 22.2 100.2 101.3 179 201.8 200.5 3.1 0.5 6.1 1.2 9.2 1.6 4.7 0.8 9.4 1.6 14.2 2.2 2.2 0.3 4.5 0.5 6.7 0.8 63.1 9 127.5 13.9 193 13.9 65.7 0 130.2-4.9 193.4-13.9 0.9-0.1 1.9-0.2 2.8-0.4 7.1-0.8 14.2-1.9 21.1-3.2 1.3-0.2 2.6-0.5 3.9-0.7 119.6-25 209.5-131 209.5-258 0.2-77-33.1-146.2-86-194.4z" fill="#33ABE3" /><path d="M522.8 1024c-64.3 0-130.2-4.7-195.9-14.1l-6.8-0.9c-4.6-0.6-9.7-1.4-14.8-2.3-1.4-0.2-3.2-0.6-5-0.9l-4-0.7c-109-23.3-194.3-108-218.2-216-0.7-3.6-1.3-6.8-1.8-10.1-0.4-2.3-0.8-4.5-1.2-6.8-16.5-86.3-24.9-174-24.9-260.4 0-86.5 8.4-174.1 24.9-260.4 0.4-2.2 0.8-4.5 1.2-6.8 0.6-3.3 1.1-6.5 1.8-9.7C101.5 128.6 185.1 44.3 291 19.8c14.1-2.4 27.1-4.4 40.2-6.3C395.8 4.6 460.3 0 522.8 0c62.7 0 127.3 4.6 192 13.6 120 12.2 211.1 113.1 211.1 234.6 0 54.3-18.9 107.3-53.3 149.3L855.8 386l15.9 12.5c-12.6 16.1-19.3 34.9-19.3 54.6 0 23.2 9 45.2 25.3 61.9 0.5 0.5 1 0.9 1.4 1.3l1.9 1.7c59 53.8 92.8 130.2 92.8 209.5 0 133.7-94.9 250.5-225.6 277.8l-4.8 0.9c-7.2 1.4-14.8 2.6-22.2 3.4l-1.3 0.2c-66.6 9.4-132.6 14.2-197.1 14.2z m0-983.6c-60.7 0-123.3 4.4-186.1 13.2-12.7 1.8-25.3 3.7-37.9 5.8-89.6 20.7-161.2 93-181.3 183.9-0.5 2.4-1 5.2-1.4 8-0.4 2.5-0.9 5.1-1.3 7.6-16.1 83.9-24.2 168.9-24.2 252.8s8.1 169 24.2 252.8c0.5 2.5 0.9 5.1 1.3 7.6 0.5 2.8 0.9 5.6 1.5 8.4 20.4 92.5 93.6 165.1 186.3 185l8.2 1.4c4.7 0.8 9.1 1.5 13.5 2.1l7.1 0.9c63.8 9.1 127.8 13.7 190.2 13.7 62.5 0 126.6-4.6 190.6-13.7l1.9-0.2c0.3 0 1.4-0.2 1.6-0.2 6.6-0.7 13.1-1.7 19.5-3l4.4-0.8c111.3-23.2 192.7-123.4 192.7-238.1 0-68-29-133.5-79.6-179.6l-0.1-0.1-1.2-1c-1.3-1.2-2.6-2.3-3.8-3.6-23.9-24.4-36.9-56.4-36.9-90.2 0-28.8 9.7-56.3 28-79.6 0.1-0.2 0.9-1.1 1-1.3 28.8-35.2 44.5-79.1 44.5-124.1 0-100.7-75.4-184.3-175.4-194.5-63.7-8.7-126.5-13.2-187.3-13.2z" fill="#403F3F" /><path d="M815.9 665.1c-21-17.7-67.4-44.3-134.8-38.4-55.9 4.9-107.3 5-158.3 1.2-48.2-3.6-91.8-15.8-137.9-44.5-30.7-19.1-61.5-52.5-72.6-96.3-28.4-112.1 56.7-203.4 150.6-206 81.4-2.2 125.3 51.7 125.3 51.7 19.3-55.4 55-99.5 91.5-128.2-148-35-267.1 15.9-341.5 74-131.9 103-147.9 299-45.9 421.8 88.3 106.3 266.5 155.3 419.8 125.4 63.6-12.4 96.5-46.5 116.5-74.6 20-28.2 13.8-63.8-12.7-86.1z" fill="#FFFFFF" /><path d="M583.4 193.3c30.5 0 62.7 3.5 96.3 11.5-36.6 28.7-72.2 72.7-91.5 128.2 0 0-42.1-51.8-120.5-51.8-1.6 0-3.2 0-4.8 0.1-94 2.5-179.1 93.8-150.6 206 11.1 43.9 41.9 77.2 72.6 96.3 46.2 28.7 89.7 40.9 137.9 44.5 23.7 1.7 47.5 2.7 71.8 2.7 28 0 56.6-1.2 86.5-3.9 6.6-0.6 12.9-0.8 19.1-0.8 57.1 0 96.8 23.2 115.7 39.2 26.4 22.3 32.7 57.9 12.7 86.1-20 28.1-52.9 62.2-116.5 74.6-29.9 5.8-60.7 8.7-91.6 8.7-127.8 0-257.2-48.5-328.3-134-101.9-122.7-85.9-318.8 45.9-421.8 57.6-45.1 141.8-85.6 245.3-85.6m0-40.5c-96.5 0-192.4 33.4-270.1 94-71.2 55.6-115.8 136.8-125.7 228.7-9.8 91.2 17 182.6 73.6 250.7 76.1 91.7 213.8 148.6 359.4 148.6 33.9 0 67.3-3.2 99.3-9.4 60.2-11.8 106.6-41.5 141.7-90.9 31.9-44.9 23.6-103.9-19.6-140.3-17.4-14.7-65.9-48.7-141.8-48.7-7.5 0-15.1 0.3-22.6 1-28.4 2.5-55.5 3.7-83 3.7-22.9 0-45.4-0.8-68.8-2.6-45.2-3.3-82-15.2-119.5-38.5-27.2-16.9-47.7-43.8-54.8-71.9-9.8-38.7-2.6-76.7 20.2-106.8 22.4-29.6 56.9-47.8 92.3-48.8 1.3 0 2.5-0.1 3.7-0.1 57 0 88.1 35.7 89.4 37.2 7.7 9.5 19.1 14.7 31.1 14.7 2.4 0 4.7-0.2 7.1-0.6 14.4-2.5 26.2-12.9 31-26.7 20.1-57.7 57.7-93.5 78.3-109.7 12.2-9.6 17.9-25.3 14.5-40.5-3.3-15.2-15.1-27.1-30.2-30.7-35.1-8.1-70.6-12.4-105.5-12.4z" fill="#403F3F" /></svg>