<?xml version="1.0" standalone="no"?><!DOCTYPE svg PUBLIC "-//W3C//DTD SVG 1.1//EN" "http://www.w3.org/Graphics/SVG/1.1/DTD/svg11.dtd"><svg class="icon" width="48px" height="48.00px" viewBox="0 0 1024 1024" version="1.1" xmlns="http://www.w3.org/2000/svg"><path d="M0 0h1024v1024H0V0z" fill="#202425" opacity=".01" /><path d="M409.6 204.8a102.4 102.4 0 0 1 102.4-102.4h341.333333a102.4 102.4 0 1 1 0 204.8H512a102.4 102.4 0 0 1-102.4-102.4z m0 307.2a102.4 102.4 0 0 1 102.4-102.4h341.333333a102.4 102.4 0 1 1 0 204.8H512a102.4 102.4 0 0 1-102.4-102.4z m102.4 204.8a102.4 102.4 0 1 0 0 204.8h341.333333a102.4 102.4 0 1 0 0-204.8H512z" fill="#FF7744" /><path d="M68.266667 204.8a102.4 102.4 0 1 1 204.8 0 102.4 102.4 0 0 1-204.8 0z m0 307.2a102.4 102.4 0 1 1 204.8 0 102.4 102.4 0 0 1-204.8 0z m102.4 204.8a102.4 102.4 0 1 0 0 204.8 102.4 102.4 0 0 0 0-204.8z" fill="#FFAA44" /></svg>